<?xml version="1.0" standalone="no"?><!DOCTYPE svg PUBLIC "-//W3C//DTD SVG 1.1//EN" "http://www.w3.org/Graphics/SVG/1.1/DTD/svg11.dtd"><svg t="1553796268209" class="icon" style="" viewBox="0 0 1024 1024" version="1.1" xmlns="http://www.w3.org/2000/svg" p-id="2036" xmlns:xlink="http://www.w3.org/1999/xlink" width="200" height="200"><defs><style type="text/css"></style></defs><path d="M71.53664 354.9952V176.70144c0-52.5312 39.66976-93.42464 92.16-94.99648 9.40544-0.2816 18.86208 0 28.26752 0H872.61184c43.58656 0 78.61248 29.85472 89.92768 71.00416 5.22752 19.00032 2.42688 42.43968 2.42688 61.9008v155.74016c0 33.01888 51.2 33.01888 51.2 0V184.04864c0-84.69504-59.84768-153.54368-147.23072-153.54368H165.4272c-85.1456 0-145.09056 69.33504-145.09056 151.7056v172.78464c0 33.01888 51.2 33.01888 51.2 0zM964.97664 704.8448v89.7536c0 32.3072 4.90496 70.04672-9.33888 100.0192-26.76736 56.33024-84.80256 51.56352-136.2944 51.56352H164.13696c-33.4848 0-62.47424-17.57696-80.01536-45.6448-13.21984-21.15584-12.58496-44.8512-12.58496-68.62336v-137.30816c0-33.01376-51.2-33.01376-51.2 0v87.33184c0 30.53568-2.81088 62.7968 1.7664 93.12768 8.704 57.68704 51.04128 102.72256 106.82368 118.0672 17.32096 4.76672 35.4048 4.25472 53.17632 4.25472h688.97792c79.33952 0 145.09568-64.5632 145.09568-144.256v-148.28544c0-33.01376-51.2-33.01376-51.2 0zM182.05184 544.85504h672.40448c33.01376 0 33.01376-51.2 0-51.2H182.05184c-33.01888 0-33.01888 51.2 0 51.2z" p-id="2037"></path></svg>