<?xml version="1.0" standalone="no"?><!DOCTYPE svg PUBLIC "-//W3C//DTD SVG 1.1//EN" "http://www.w3.org/Graphics/SVG/1.1/DTD/svg11.dtd"><svg t="1553745380914" class="icon" style="" viewBox="0 0 1024 1024" version="1.1" xmlns="http://www.w3.org/2000/svg" p-id="2907" xmlns:xlink="http://www.w3.org/1999/xlink" width="200" height="200"><defs><style type="text/css"></style></defs><path d="M307.11296 536.1408a22.81472 22.81472 0 0 1-15.2064-5.71392c-9.728-8.3968-10.82368-23.11168-2.432-32.96256l410.13248-474.96192a23.4496 23.4496 0 0 1 32.96768-2.432c9.728 8.39168 10.82368 23.10656 2.432 32.95744l-410.25536 474.96704a23.22432 23.22432 0 0 1-17.6384 8.1408z m410.1376 474.72128a23.22944 23.22944 0 0 1-17.64352-8.15104L289.47456 527.872c-8.39168-9.728-7.296-24.44288 2.432-32.95744 9.73312-8.3968 24.448-7.296 32.96256 2.432l410.1376 474.96704c8.39168 9.728 7.296 24.44288-2.43712 32.95744a23.38304 23.38304 0 0 1-15.32416 5.59616z" p-id="2908"></path></svg>