<?xml version="1.0" standalone="no"?><!DOCTYPE svg PUBLIC "-//W3C//DTD SVG 1.1//EN" "http://www.w3.org/Graphics/SVG/1.1/DTD/svg11.dtd"><svg t="1553768005018" class="icon" style="" viewBox="0 0 1024 1024" version="1.1" xmlns="http://www.w3.org/2000/svg" p-id="2657" xmlns:xlink="http://www.w3.org/1999/xlink" width="200" height="200"><defs><style type="text/css"></style></defs><path d="M92.119047 413.385005c0-282.924721 309.11829-340.557326 419.148265-94.307899 104.784508-230.532467 419.143149-188.616822 419.143149 94.307899 0 162.418137-408.66654 408.66654-419.143149 450.582185C500.785587 822.051545 92.119047 575.803141 92.119047 413.385005L92.119047 413.385005zM511.267313 381.950062l-26.198685-52.392254c-36.675294-89.071641-104.784508-141.463895-183.375447-141.463895-89.067548 0-183.375447 68.109214-183.375447 220.050742 0 99.54825 204.332758 256.730129 309.11829 345.797677 41.915645 31.43392 62.872956 52.392254 83.83129 68.109214 15.71696-15.71696 47.151903-36.675294 83.827197-68.109214 115.26521-89.067548 309.122383-241.009076 309.122383-340.557326 0-146.701177-94.308923-220.050742-183.380564-220.050742-78.585823 0-146.700153 52.392254-188.615798 136.223544L511.267313 381.950062 511.267313 381.950062zM511.267313 381.950062" p-id="2658"></path><path d="M317.41014 240.486166c5.240351 5.240351 0 10.480702-5.240351 5.240351-57.632605 5.240351-104.784508 36.675294-115.266233 110.025882 0 10.480702-5.236258 15.71696-10.476609 10.480702-5.240351-5.240351-5.240351-15.722076-5.240351-26.198685 10.480702-73.350588 52.392254-94.307899 115.266233-104.784508C301.69318 230.009558 312.169789 235.248885 317.41014 240.486166L317.41014 240.486166zM317.41014 240.486166" p-id="2659"></path></svg>