<?xml version="1.0" standalone="no"?><!DOCTYPE svg PUBLIC "-//W3C//DTD SVG 1.1//EN" "http://www.w3.org/Graphics/SVG/1.1/DTD/svg11.dtd"><svg t="1553768336962" class="icon" style="" viewBox="0 0 1024 1024" version="1.1" xmlns="http://www.w3.org/2000/svg" p-id="3364" xmlns:xlink="http://www.w3.org/1999/xlink" width="200" height="200"><defs><style type="text/css"></style></defs><path d="M1024 505.929143c0-10.642286-4.642743-20.143543-11.856457-26.8928L608 130.0352c-6.429257-5.463771-14.6432-8.892343-23.714743-8.892343-20.286171 0-36.642743 16.393143-36.642743 36.642743l0 154.499657C238.714514 362.143086 21.215086 589.249829 0 880.714971c1.000229 12.357486 11.143314 22.178743 23.714743 22.178743 4.856686 0 9.428114-1.464686 13.215086-3.964343 0.071314-0.071314 0 0.213943 0.071314 0.213943 53.357714-37.893486 99.499886-66.143086 135.5008-85.141943 87.356343-48.071314 222.999771-86.893714 375.1424-102.500571l0 143.1424c0 20.286171 16.356571 36.642743 36.642743 36.642743 8.643657 0 16.427886-3.249371 22.714514-8.285257l404.214857-349.070629c0-0.036571-0.142629-0.071314-0.071314-0.107886C1019.000686 527.1424 1024 517.1072 1024 505.929143zM620.929829 774.178743l0-142.142171-39.356343 2.929371c-159.213714 11.856457-371.143314 58.177829-490.929371 143.892114 58.357029-214.571886 244.000914-368.107886 497.929143-398.357943l32.356571-3.856457 0-138.642286 310.357943 268.106971L620.929829 774.178743z" p-id="3365"></path></svg>